<?xml version="1.0" encoding="UTF-8" standalone="no"?>
<svg width="43px" height="45px" viewBox="0 0 43 45" version="1.1" xmlns="http://www.w3.org/2000/svg" xmlns:xlink="http://www.w3.org/1999/xlink" xmlns:sketch="http://www.bohemiancoding.com/sketch/ns">
    <!-- Generator: Sketch 3.3.2 (12043) - http://www.bohemiancoding.com/sketch -->
    <title>Imported Layers</title>
    <desc>Created with Sketch.</desc>
    <defs></defs>
    <g id="Landing" stroke="none" stroke-width="1" fill="none" fill-rule="evenodd" sketch:type="MSPage">
        <g id="Implicaciones" sketch:type="MSArtboardGroup" transform="translate(-58.000000, -459.000000)" fill="#009966">
            <path d="M64.6735701,502.129928 L64.0796668,496.117768 C64.0796668,495.564688 64.7807966,496.054408 65.6653055,496.054408 C66.5428118,496.054408 67.2522571,495.564688 67.2522571,496.117768 L66.7550765,501.981208 C66.7550765,503.261608 64.6735701,502.740208 64.6735701,502.129928 L64.6735701,502.129928 Z M62.1277075,482.557408 C57.7712495,480.577848 58.1257533,477.461328 58.1257533,477.461328 C57.5760536,478.561328 58.7454785,488.157288 63.2857533,488.157288 C65.3173665,488.157288 67.0242368,484.768408 62.1277075,482.557408 L62.1277075,482.557408 Z M62.1277075,475.777008 C57.7712495,473.803608 58.1257533,470.687088 58.1257533,470.687088 C57.5760536,471.784448 58.7454785,481.383048 63.2857533,481.383048 C65.3173665,481.383048 67.0242368,477.994168 62.1277075,475.777008 L62.1277075,475.777008 Z M62.1277075,469.200328 C57.7712495,467.235288 58.1257533,464.113048 58.1257533,464.113048 C57.5760536,465.213048 58.7454785,474.803288 63.2857533,474.803288 C65.3173665,474.803288 67.0242368,471.423208 62.1277075,469.200328 L62.1277075,469.200328 Z M68.1682775,488.157288 C72.7085523,488.157288 73.8722877,478.561328 73.3282775,477.461328 C73.3282775,477.461328 73.6801553,480.577848 69.3210714,482.557408 C64.429794,484.768408 66.1309747,488.157288 68.1682775,488.157288 L68.1682775,488.157288 Z M62.1277075,489.500608 C57.7712495,487.521488 58.1257533,484.404968 58.1257533,484.404968 C57.5760536,485.504968 58.7454785,495.100928 63.2857533,495.100928 C65.3173665,495.100928 67.0242368,491.712048 62.1277075,489.500608 L62.1277075,489.500608 Z M68.1682775,495.100928 C72.7085523,495.100928 73.8722877,485.504968 73.3282775,484.404968 C73.3282775,484.404968 73.6801553,487.521488 69.3210714,489.500608 C64.429794,491.712048 66.1309747,495.100928 68.1682775,495.100928 L68.1682775,495.100928 Z M68.1682775,481.383048 C72.7085523,481.383048 73.8722877,471.784448 73.3282775,470.687088 C73.3282775,470.687088 73.6801553,473.803608 69.3210714,475.777008 C64.429794,477.994168 66.1309747,481.383048 68.1682775,481.383048 L68.1682775,481.383048 Z M68.1682775,474.803288 C72.7085523,474.803288 73.8722877,465.213048 73.3282775,464.113048 C73.3282775,464.113048 73.6801553,467.235288 69.3210714,469.200328 C64.429794,471.423208 66.1309747,474.803288 68.1682775,474.803288 L68.1682775,474.803288 Z M66.0425676,469.712928 C70.8590052,469.712928 65.7777838,459.389648 65.7777838,459.389648 C65.1650612,460.360728 61.2274429,469.712928 66.0425676,469.712928 L66.0425676,469.712928 Z M79.0651121,502.935128 L81.9716057,497.821888 C82.202252,497.329528 81.3562571,497.464168 80.5623436,497.097648 C79.7561757,496.721888 79.3259569,495.980488 79.0961859,496.481648 L77.1149034,502.181848 C76.8597482,502.740208 78.5250408,504.092328 79.0651121,502.935128 L79.0651121,502.935128 Z M83.0053564,483.356448 C79.8900994,479.715888 81.5125014,477.040248 81.5125014,477.040248 C80.5540281,477.804968 77.5963284,487.005808 81.7090103,488.927728 C83.5524302,489.790128 86.521509,487.440968 83.0053564,483.356448 L83.0053564,483.356448 Z M85.8492648,477.203488 C82.7322571,473.571288 84.3533462,470.896088 84.3533462,470.896088 C83.3931223,471.658168 80.4310459,480.855928 84.5467915,482.784008 C86.3963385,483.643328 89.3592902,481.299888 85.8492648,477.203488 L85.8492648,477.203488 Z M88.6043284,471.245448 C85.4785676,467.618968 87.1084098,464.932328 87.1084098,464.932328 C86.1508118,465.697048 83.1909238,474.892168 87.3079823,476.819808 C89.1514022,477.676488 92.1174174,475.336128 88.6043284,471.245448 L88.6043284,471.245448 Z M86.1398704,491.001448 C90.2564912,492.917648 95.3372749,484.716928 95.2970103,483.482288 C95.2970103,483.482288 94.3140281,486.458888 89.5299772,486.404328 C84.1677788,486.347128 84.2933869,490.134208 86.1398704,491.001448 L86.1398704,491.001448 Z M80.0993004,489.652848 C76.9779162,486.014488 78.6007559,483.342368 78.6007559,483.342368 C77.6431579,484.104008 74.6845828,493.302208 78.8003284,495.217968 C80.6490001,496.080368 83.6097635,493.737368 80.0993004,489.652848 L80.0993004,489.652848 Z M83.2303131,497.292128 C87.344308,499.217128 92.4250917,491.007608 92.3909543,489.778688 C92.3909543,489.778688 91.4049085,492.754848 86.6239212,492.700728 C81.2590968,492.643088 81.3873309,496.432808 83.2303131,497.292128 L83.2303131,497.292128 Z M88.9833411,484.852008 C93.097336,486.773928 98.1746184,478.561768 98.140481,477.335488 C98.140481,477.335488 97.1548729,480.309008 92.3738856,480.257528 C87.0055599,480.199888 87.1368576,483.995328 88.9833411,484.852008 L88.9833411,484.852008 Z M91.7384047,478.882088 C95.8554632,480.809728 100.927056,472.603288 100.892919,471.371728 C100.892919,471.371728 99.9042469,474.356248 95.1289492,474.293328 C89.7636871,474.236128 89.8949849,478.025848 91.7384047,478.882088 L91.7384047,478.882088 Z M91.9406032,473.365368 C96.3058144,475.404768 96.0265879,463.889528 96.0265879,463.889528 C95.063738,464.520048 87.575392,471.325528 91.9406032,473.365368 L91.9406032,473.365368 Z" id="Imported-Layers" sketch:type="MSShapeGroup"></path>
        </g>
    </g>
</svg>