<?xml version="1.0" encoding="UTF-8" standalone="no"?>
<svg width="49px" height="20px" viewBox="0 0 49 20" version="1.1" xmlns="http://www.w3.org/2000/svg" xmlns:xlink="http://www.w3.org/1999/xlink" xmlns:sketch="http://www.bohemiancoding.com/sketch/ns">
    <!-- Generator: Sketch 3.3.2 (12043) - http://www.bohemiancoding.com/sketch -->
    <title>Imported Layers</title>
    <desc>Created with Sketch.</desc>
    <defs></defs>
    <g id="Landing" stroke="none" stroke-width="1" fill="none" fill-rule="evenodd" sketch:type="MSPage">
        <g id="Implicaciones" sketch:type="MSArtboardGroup" transform="translate(-692.000000, -472.000000)" fill="#009966">
            <path d="M702.385455,491.299689 L692,491.299689 C700.501818,486.435689 704.014545,474.920914 709.767273,474.920914 C712.312727,474.920914 714.196364,476.459526 714.552727,478.246301 C711.498182,476.757322 708.698182,479.387853 708.698182,482.71324 C708.698182,483.854791 708.952727,484.94671 709.461818,485.939363 C707.781818,487.676506 705.949091,489.215118 703.861818,490.406301 L702.385455,491.299689 L702.385455,491.299689 Z M740.872727,491.299689 C737.156364,489.860342 734.610909,487.37871 734.610909,484.053322 C734.610909,481.224261 736.952727,478.990791 739.549091,480.231608 C739.243636,478.692995 737.614545,477.402546 735.527273,477.402546 C730.589091,477.402546 727.687273,487.180179 720.509091,491.299689 L740.872727,491.299689 L740.872727,491.299689 Z M720,490.455934 C721.985455,489.314383 723.665455,487.676506 725.141818,485.939363 C724.276364,484.599281 723.818182,483.110301 723.818182,481.422791 C723.818182,477.551444 727.076364,474.573485 730.589091,476.260995 C730.181818,474.176424 727.941818,472.389648 725.04,472.389648 C718.32,472.389648 714.298182,485.691199 704.472727,491.250057 L718.574545,491.250057 L720,490.455934 L720,490.455934 Z" id="Imported-Layers" sketch:type="MSShapeGroup"></path>
        </g>
    </g>
</svg>