<?xml version="1.0" encoding="UTF-8" standalone="no"?>
<svg width="49px" height="55px" viewBox="0 0 49 55" version="1.1" xmlns="http://www.w3.org/2000/svg" xmlns:xlink="http://www.w3.org/1999/xlink" xmlns:sketch="http://www.bohemiancoding.com/sketch/ns">
    <!-- Generator: Sketch 3.3 (11970) - http://www.bohemiancoding.com/sketch -->
    <title>nuclear7 copy</title>
    <desc>Created with Sketch.</desc>
    <defs></defs>
    <g id="Page-1" stroke="none" stroke-width="1" fill="none" fill-rule="evenodd" sketch:type="MSPage">
        <g id="Artboard-1" sketch:type="MSArtboardGroup" transform="translate(-1.000000, 0.000000)" fill="#3CAC90">
            <g id="nuclear7-copy" sketch:type="MSLayerGroup">
                <g id="Group" sketch:type="MSShapeGroup">
                    <path d="M44.9746898,31.2832506 C44.9758065,31.164268 44.9289082,31.0496278 44.8450372,30.9652605 C44.7611663,30.8805211 44.6470223,30.8331266 44.5280397,30.8331266 L31.0950372,30.8331266 C30.9758065,30.8331266 30.8616625,30.8808933 30.7776675,30.9652605 C30.6937965,31.0497519 30.6472705,31.164268 30.648263,31.2832506 C30.7182382,39.6652605 29.9251861,47.7094293 28.2884615,55.2574442 C25.7447891,44.264268 24.5068238,32.4792804 24.6075682,20.1601737 C24.6090571,19.9947891 24.5442928,19.8356079 24.4277916,19.7182382 C24.3112903,19.6007444 24.1527295,19.5347395 23.9872208,19.5347395 L5.32717122,19.5347395 C5.16191067,19.5347395 5.00322581,19.6008685 4.88684864,19.7182382 C4.77034739,19.835732 4.70558313,19.9947891 4.70682382,20.1602978 C4.82171216,33.935732 3.25918114,47.0545906 0.0624069479,59.1528536 C0.0132754342,59.3389578 0.0532258065,59.5372208 0.170719603,59.6898263 C0.2882134,59.8423077 0.469727047,59.9316377 0.662158809,59.9316377 L47.8861042,59.9265509 L47.8875931,59.9265509 C48.1344913,59.9265509 48.3344913,59.7266749 48.3344913,59.4796526 C48.3344913,59.4260546 48.325062,59.3746898 48.3078164,59.3270471 C46.0147643,50.6363524 44.8935484,41.1933002 44.9746898,31.2832506 L44.9746898,31.2832506 Z" id="Shape"></path>
                    <path d="M4.76774194,16.9166253 C4.69119107,17.5975186 5.1808933,18.2116625 5.8617866,18.2883375 C6.54317618,18.3651365 7.15682382,17.8751861 7.23362283,17.1942928 C7.29565757,16.642928 7.49143921,16.1065757 7.79987593,15.6433002 C8.10980149,15.1779156 8.07034739,14.5626551 7.70297767,14.1409429 C7.38598015,13.7765509 7.21129032,13.3102978 7.21129032,12.8279156 C7.21129032,12.0083127 7.70248139,11.2797767 8.46290323,10.9718362 C9.05980149,10.7300248 9.37258065,10.0717122 9.18263027,9.45620347 C9.10533499,9.20521092 9.06612903,8.94330025 9.06612903,8.67779156 C9.06612903,7.2235732 10.2491315,6.04044665 11.7033499,6.04044665 C11.9120347,6.04044665 12.1220844,6.06575682 12.3275434,6.11550868 C12.983995,6.27468983 13.6467742,5.87940447 13.8192308,5.22655087 C14.2461538,3.61042184 15.7132754,2.48176179 17.3869727,2.48176179 C18.8256824,2.48176179 20.142928,3.32828784 20.742928,4.63833747 C20.892928,4.96588089 21.1779156,5.21203474 21.5236973,5.31290323 C21.8692308,5.41377171 22.2419355,5.35930521 22.544665,5.16377171 C22.957072,4.8971464 23.4352357,4.7560794 23.9274194,4.7560794 C25.0557072,4.7560794 26.0636476,5.51215881 26.3781638,6.59478908 C26.5622829,7.22841191 27.2100496,7.60694789 27.8531017,7.45632754 C27.9769231,7.42729529 28.1027295,7.41240695 28.2270471,7.41240695 C29.1234491,7.41240695 29.8528536,8.14168734 29.8528536,9.0382134 C29.8528536,9.65372208 29.5109181,10.2096774 28.9605459,10.4888337 C28.5086849,10.717866 28.2418114,11.198263 28.285732,11.7026055 C28.2903226,11.7549628 28.2926799,11.8001241 28.2926799,11.8408189 C28.2926799,12.7021092 27.5919355,13.4027295 26.7305211,13.4027295 C26.4595533,13.4027295 26.2029777,13.335732 25.9679901,13.2037221 C25.417866,12.8949132 24.7239454,13.0480149 24.3548387,13.5593052 C23.883995,14.2112903 23.1942928,14.6560794 22.4129032,14.8119107 C21.9349876,14.907196 21.5573201,15.273201 21.4470223,15.7477667 C21.3898263,15.9933002 21.298263,16.2313896 21.1744417,16.4557072 C20.8431762,17.0555831 21.0610422,17.8102978 21.6610422,18.1415633 C21.8509926,18.2465261 22.0566998,18.2962779 22.2595533,18.2962779 C22.6966501,18.2962779 23.1204715,18.0647643 23.3468983,17.6549628 C23.4557072,17.4576923 23.5513648,17.2543424 23.633871,17.0462779 C24.4179901,16.7759305 25.1306452,16.3361042 25.724938,15.7565757 C26.0523573,15.8406948 26.3905707,15.883871 26.7306452,15.883871 C28.8116625,15.883871 30.5308933,14.3033499 30.7502481,12.2795285 C31.742804,11.5105459 32.3346154,10.3261787 32.3346154,9.03784119 C32.3346154,6.81935484 30.566129,5.0060794 28.3652605,4.93312655 C27.5013648,3.32828784 25.7985112,2.27431762 23.9280397,2.27431762 C23.3925558,2.27431762 22.8655087,2.358933 22.3636476,2.52320099 C21.2143921,0.960297767 19.3700993,0 17.3877171,0 C14.9610422,0 12.7940447,1.41960298 11.7949132,3.55942928 C8.93622829,3.51042184 6.58548387,5.82456576 6.58548387,8.67729529 C6.58548387,8.84441687 6.59342432,9.01091811 6.60942928,9.17630273 C5.44292804,10.0045906 4.73002481,11.3501241 4.73002481,12.8277916 C4.73002481,13.6028536 4.9308933,14.3591811 5.30645161,15.0259305 C5.02493797,15.621464 4.84143921,16.2626551 4.76774194,16.9166253 L4.76774194,16.9166253 Z" id="Shape"></path>
                    <path d="M47.1433002,20.3275434 C46.4655087,19.2363524 45.2532258,18.5320099 43.9284119,18.5320099 C43.625062,18.5320099 43.325062,18.5682382 43.033995,18.6390819 C42.1832506,17.6243176 40.9119107,17.0102978 39.5521092,17.0102978 C37.8565757,17.0102978 36.3332506,17.9526055 35.5547146,19.3962779 C33.5299007,19.4978908 31.9135236,21.1771712 31.9135236,23.2269231 C31.9135236,23.2740695 31.9145161,23.3210918 31.916129,23.3681141 C31.1397022,24.0038462 30.6727047,24.9604218 30.6727047,26.0039702 C30.6727047,26.5223325 30.7906948,27.0296526 31.0133995,27.48933 C30.8532258,27.8738213 30.7471464,28.280397 30.7006203,28.6939206 C30.6241935,29.3748139 31.1137717,29.9889578 31.794665,30.0656328 C32.4758065,30.1418114 33.0897022,29.6524814 33.1665012,28.9715881 C33.2006203,28.6672457 33.3086849,28.3712159 33.4792804,28.1153846 C33.789206,27.65 33.7495037,27.0348635 33.3823821,26.6130273 C33.2784119,26.4935484 33.1543424,26.2908189 33.1543424,26.0040943 C33.1543424,25.6238213 33.3823821,25.2856079 33.7354839,25.1426799 C34.3326303,24.9008685 34.6451613,24.2421836 34.4552109,23.6265509 C34.4156328,23.498263 34.3955335,23.3638958 34.3955335,23.2270471 C34.3955335,22.480397 35.0029777,21.8729529 35.7496278,21.8729529 C35.8568238,21.8729529 35.9646402,21.8858561 36.0704715,21.9115385 C36.7276675,22.0704715 37.3899504,21.6756824 37.5622829,21.0227047 C37.8004963,20.1212159 38.6189826,19.4916873 39.5524814,19.4916873 C40.3554591,19.4916873 41.0901985,19.9640199 41.425062,20.6950372 C41.5748139,21.0225806 41.8598015,21.2687345 42.2055831,21.369603 C42.5512407,21.4704715 42.9238213,21.416129 43.2265509,21.2204715 C43.4361042,21.0849876 43.6789082,21.0133995 43.9290323,21.0133995 C44.5026055,21.0133995 45.0148883,21.3976427 45.1748139,21.9478908 C45.358933,22.5815136 46.0076923,22.9599256 46.6493797,22.8094293 C47.0816377,22.7084367 47.4832506,23.0431762 47.4832506,23.4681141 C47.4832506,23.7745658 47.2908189,23.9813896 47.110794,24.0727047 C46.6590571,24.301737 46.3920596,24.7823821 46.4361042,25.2869727 C46.4375931,25.3055831 46.4389578,25.3244417 46.4389578,25.3435484 C46.4389578,25.6934243 46.1540943,25.9781638 45.8043424,25.9781638 C45.6941687,25.9781638 45.5899504,25.9511166 45.4951613,25.8976427 C44.9452854,25.5889578 44.2511166,25.7418114 43.8817618,26.2532258 C43.6277916,26.6050868 43.2558313,26.8451613 42.8349876,26.9290323 C42.357072,27.0243176 41.9792804,27.3903226 41.8689826,27.8648883 C41.8394541,27.9921836 41.7916873,28.116129 41.726799,28.2331266 C41.3957816,28.8330025 41.6136476,29.5877171 42.2133995,29.9188586 C42.403598,30.0238213 42.6090571,30.0734491 42.8119107,30.0734491 C43.2488834,30.0734491 43.6730769,29.8419355 43.8992556,29.4322581 C43.9503722,29.3399504 43.9973945,29.2459057 44.0409429,29.1501241 C44.4844913,28.9745658 44.8939206,28.7245658 45.2528536,28.4101737 C45.4343672,28.442804 45.6189826,28.4594293 45.8043424,28.4594293 C47.3491315,28.4594293 48.6347395,27.3295285 48.878536,25.8526055 C49.5617866,25.2614144 49.9645161,24.4002481 49.9645161,23.4681141 C49.9638958,21.8408189 48.7265509,20.4967742 47.1433002,20.3275434 L47.1433002,20.3275434 Z" id="Shape"></path>
                </g>
            </g>
        </g>
    </g>
</svg>