<?xml version="1.0" encoding="UTF-8" standalone="no"?>
<svg width="41px" height="41px" viewBox="0 0 41 41" version="1.1" xmlns="http://www.w3.org/2000/svg" xmlns:xlink="http://www.w3.org/1999/xlink" xmlns:sketch="http://www.bohemiancoding.com/sketch/ns">
    <!-- Generator: Sketch 3.3.2 (12043) - http://www.bohemiancoding.com/sketch -->
    <title>Imported Layers</title>
    <desc>Created with Sketch.</desc>
    <defs></defs>
    <g id="Landing" stroke="none" stroke-width="1" fill="none" fill-rule="evenodd" sketch:type="MSPage">
        <g id="Implicaciones" sketch:type="MSArtboardGroup" transform="translate(-60.000000, -560.000000)" fill="#009966">
            <path d="M100.502458,573.191153 C99.0351812,566.720183 94.7688021,562.438124 90.1273166,560.389648 C95.8985622,565.468064 101.215081,575.295945 94.6007576,584.250322 C91.857009,587.966678 86.3699085,589.435193 84.0712914,588.399074 C84.0712914,588.399074 87.625127,587.645252 89.8354791,585.714876 C94.1338175,581.650797 95.5701657,575.103787 92.1295758,569.151945 C91.6377344,568.301252 91.064686,567.526678 90.4257363,566.832738 C90.4166164,566.822044 90.4090032,566.811431 90.399804,566.801292 C87.9819143,563.920421 84.6610729,562.200896 81.0930419,561.673134 C76.4606763,560.803747 70.4873649,561.934203 66.0139239,566.066242 C61.1369065,570.571827 59.5574152,576.403035 60.1025487,581.442955 C61.6195487,573.910995 67.4832624,564.398916 78.5542934,565.64145 C83.149069,566.157965 87.1647692,570.169292 87.4164791,572.676064 C87.4164791,572.676064 84.738156,568.478203 78.0954423,568.478203 C77.9736319,568.480262 77.7162914,568.490401 77.7092334,568.490401 C77.6813185,568.491906 77.6528485,568.493411 77.6244578,568.49547 C73.3052624,568.664262 69.1063707,570.920579 66.5447827,575.352183 C66.0529413,576.202322 65.6682392,577.085411 65.3855216,577.985688 C65.3804462,577.997886 65.3759259,578.011035 65.3713263,578.023233 C64.0827208,581.55551 64.2521928,585.287549 65.5779123,588.637332 C67.1406705,593.079549 71.1080748,597.68145 76.9270613,599.484143 C83.2723862,601.450005 89.1182566,599.899827 93.2151638,596.909411 C85.9253321,599.36145 74.7462102,599.046599 70.2879162,588.849688 C68.4379201,584.616817 69.9077344,579.13745 71.9562276,577.666322 C71.9562276,577.666322 69.6549936,582.081688 72.977421,587.827272 C75.2521676,591.621094 79.3810342,594.243985 84.6249897,594.243985 C84.8777305,594.243985 86.9028292,594.086282 87.6327402,593.923114 C87.6463804,593.92153 87.6606551,593.918995 87.6733437,593.91749 C91.3799181,593.265609 94.5312083,591.253094 96.772568,588.43147 C99.8432063,584.859668 101.84951,579.126282 100.502458,573.191153" id="Imported-Layers" sketch:type="MSShapeGroup"></path>
        </g>
    </g>
</svg>