<?xml version="1.0" encoding="UTF-8" standalone="no"?>
<svg width="36px" height="36px" viewBox="0 0 36 36" version="1.1" xmlns="http://www.w3.org/2000/svg" xmlns:xlink="http://www.w3.org/1999/xlink" xmlns:sketch="http://www.bohemiancoding.com/sketch/ns">
    <!-- Generator: Sketch 3.3.2 (12043) - http://www.bohemiancoding.com/sketch -->
    <title>Imported Layers</title>
    <desc>Created with Sketch.</desc>
    <defs></defs>
    <g id="Landing" stroke="none" stroke-width="1" fill="none" fill-rule="evenodd" sketch:type="MSPage">
        <g id="Implicaciones" sketch:type="MSArtboardGroup" transform="translate(-380.000000, -560.000000)" fill="#009966">
            <path d="M415.108691,578.174796 C416.207979,575.537547 409.610996,568.636261 409.610996,568.636261 C406.067766,565.93881 403.545454,568.02168 403.016925,568.531042 C402.472974,568.28654 401.931074,568.100761 401.41618,567.959933 C400.769568,567.097625 400.316826,563.605526 400.316826,563.605526 C400.716748,561.881178 399.117591,560.567089 399.117591,560.567089 C397.818343,559.354859 397.218527,560.567089 397.218527,560.567089 C395.51896,561.136855 395.718921,563.504473 395.718921,563.504473 C396.018829,565.026312 395.219449,567.76589 395.219449,567.76589 L395.181059,567.843897 C394.447804,568.013684 393.638893,568.272161 392.835277,568.664547 L392.692571,568.510281 C392.692571,568.510281 389.99373,565.4662 385.995574,568.510281 C385.995574,568.510281 379.398591,575.411499 380.497879,578.048816 C380.497879,578.048816 379.19863,581.193478 380.797787,581.39639 C380.797787,581.39639 382.297393,581.295405 383.296733,579.773163 C383.296733,579.773163 384.595981,576.425051 385.995574,576.221669 L387.745578,575.917234 L388.030461,575.756046 C387.887755,576.951614 387.896756,578.319925 388.103071,579.887116 C388.103071,579.887116 388.003124,584.16654 391.501345,587.413599 C391.501345,587.413599 391.559857,587.498056 391.665761,587.645335 C390.716262,588.396579 387.267486,591.444825 389.000346,594.875177 C389.000346,594.875177 389.000346,596.396948 390.69945,594.875177 L391.899148,594.976633 L391.899148,593.962208 L393.998173,592.135532 L394.363014,590.932305 C395.332436,591.94982 396.400747,592.871725 397.317283,593.187448 L398.03227,595.570923 L398.861899,593.172599 C399.583769,592.910829 400.396519,592.281937 401.17955,591.530693 L401.362765,592.135532 L403.46179,593.962208 L403.46179,594.976633 L404.661488,594.875177 C406.360591,596.396948 406.360591,594.875177 406.360591,594.875177 C407.868405,591.890828 405.453851,589.195729 404.175188,588.050554 C404.465829,587.659579 404.636071,587.413599 404.636071,587.413599 C408.134291,584.16654 408.034278,579.887116 408.034278,579.887116 C408.22153,578.464986 408.246484,577.206396 408.142896,576.092262 L409.611459,576.347649 C411.010655,576.550628 412.3103,579.899143 412.3103,579.899143 C413.30964,581.420914 414.808783,581.522437 414.808783,581.522437 C416.40794,581.319458 415.108691,578.174796 415.108691,578.174796 L415.108691,578.174796 Z M398.101173,569.795142 L398.101173,590.946011 L398.055569,590.945474 L398.055569,569.795142 L398.101173,569.795142 L398.101173,569.795142 Z" id="Imported-Layers" sketch:type="MSShapeGroup"></path>
        </g>
    </g>
</svg>