<?xml version="1.0" encoding="UTF-8" standalone="no"?>
<svg width="41px" height="18px" viewBox="0 0 41 18" version="1.1" xmlns="http://www.w3.org/2000/svg" xmlns:xlink="http://www.w3.org/1999/xlink" xmlns:sketch="http://www.bohemiancoding.com/sketch/ns">
    <!-- Generator: Sketch 3.3.2 (12043) - http://www.bohemiancoding.com/sketch -->
    <title>Imported Layers</title>
    <desc>Created with Sketch.</desc>
    <defs></defs>
    <g id="Landing" stroke="none" stroke-width="1" fill="none" fill-rule="evenodd" sketch:type="MSPage">
        <g id="Implicaciones" sketch:type="MSArtboardGroup" transform="translate(-380.000000, -475.000000)" fill="#009966">
            <g id="Imported-Layers" sketch:type="MSLayerGroup" transform="translate(380.000000, 475.389648)">
                <path d="M3.05105373,1.20095868 C3.91461179,1.20095868 4.68771404,1.74945455 4.97514038,2.56636777 C5.42805893,3.8557686 6.65365338,4.72164463 8.02619411,4.72164463 C9.39638995,4.72164463 10.6219844,3.85534711 11.076253,2.56636777 L10.5141906,2.37255372 L11.076253,2.56587603 C11.3623293,1.74945455 12.1367816,1.20095868 13.0013345,1.20095868 C13.8648925,1.20095868 14.6393449,1.74945455 14.9267712,2.56636777 C15.3797608,3.8557686 16.6053553,4.72164463 17.9769012,4.72164463 C19.3484471,4.72164463 20.5740416,3.8557686 21.0279549,2.56636777 C21.3139601,1.74945455 22.0884125,1.20095868 22.9516153,1.20095868 C23.8165234,1.20095868 24.5896256,1.74945455 24.8757019,2.56587603 L25.4391854,2.37255372 L24.8757019,2.56636777 C25.3295442,3.85534711 26.5564887,4.72164463 27.9267556,4.72164463 C29.2996516,4.72164463 30.5252461,3.8557686 30.9777383,2.56636777 C31.2642409,1.74945455 32.0382669,1.20095868 32.901896,1.20095868 C33.7668042,1.20095868 34.5399064,1.74945455 34.8269064,2.56587603 L35.9528787,2.1792314 C35.4990364,0.889409091 34.2743657,0.0226198347 32.901896,0.0226198347 C31.5316291,0.0226198347 30.3046846,0.889409091 29.8508423,2.17880992 L30.4143258,2.37255372 L29.8508423,2.1792314 C29.5643397,2.9952314 28.7916638,3.54372727 27.9267556,3.54372727 C27.0631265,3.54372727 26.2886742,2.9952314 26.0025979,2.17880992 C25.5487556,0.888495868 24.3231612,0.0226198347 22.9516153,0.0226198347 C21.5813484,0.0226198347 20.3549012,0.889409091 19.9009879,2.17880992 L20.4644714,2.37255372 L19.9009879,2.1792314 C19.6144853,2.9952314 18.841383,3.54372727 17.9769012,3.54372727 C17.1124194,3.54372727 16.3388198,2.9952314 16.0528146,2.1792314 L15.489331,2.37255372 L16.0528146,2.17880992 C15.5984749,0.889409091 14.3728804,0.0226198347 13.0017608,0.0226198347 C11.6292912,0.0226198347 10.4036967,0.888495868 9.95070711,2.17880992 C9.66335182,2.9952314 8.89024957,3.54372727 8.02662045,3.54372727 C7.16164125,3.54372727 6.38761525,2.9952314 6.10111265,2.1792314 L5.53905026,2.37255372 L6.10111265,2.17880992 C5.64684402,0.889409091 4.42124957,0.0226198347 3.05105373,0.0226198347 C1.67993414,0.0226198347 0.453842288,0.889409091 0,2.17880992 L1.12554593,2.56636777 C1.41297227,1.74945455 2.18742461,1.20095868 3.05105373,1.20095868 Z M39.8029705,8.3062562 C39.5155442,9.12267769 38.7424419,9.67117355 37.8793102,9.67117355 C37.0156811,9.67117355 36.2412288,9.12267769 35.9538024,8.3062562 C35.5013102,7.01678512 34.2752894,6.15090909 32.9027487,6.15090909 C31.5325529,6.15090909 30.3056083,7.01727686 29.851766,8.3062562 L30.4151785,8.5 L29.851766,8.30667769 C29.5652634,9.1222562 28.7925875,9.67075207 27.9276083,9.67075207 C27.0640503,9.67075207 26.2895979,9.1222562 26.0035217,8.30576446 C25.5496794,7.01636364 24.3240849,6.1504876 22.9524679,6.1504876 C21.5822721,6.1504876 20.3557539,7.01678512 19.9019116,8.30576446 L20.4644714,8.5 L19.9009879,8.30667769 C19.6144853,9.1222562 18.841383,9.67075207 17.9769012,9.67075207 C17.1124194,9.67075207 16.3388198,9.1222562 16.0528146,8.30667769 L15.489331,8.5 L16.0528146,8.30576446 C15.5984749,7.01678512 14.3728804,6.1504876 13.0017608,6.1504876 C11.6292912,6.1504876 10.4036967,7.01636364 9.95070711,8.30576446 C9.66335182,9.1222562 8.89024957,9.67075207 8.02662045,9.67075207 C7.16164125,9.67075207 6.38761525,9.1222562 6.10111265,8.30667769 L4.97556672,8.69332231 C5.42855633,9.98180992 6.65415078,10.8500041 8.02662045,10.8500041 C9.39681629,10.8500041 10.6224107,9.98180992 11.0767504,8.6937438 L10.5141906,8.5 L11.076253,8.69332231 C11.3623293,7.87732231 12.1367816,7.32882645 13.0013345,7.32882645 C13.8648925,7.32882645 14.6393449,7.87732231 14.9267712,8.6937438 C15.3797608,9.98321488 16.6053553,10.8500041 17.9769012,10.8500041 C19.3484471,10.8500041 20.5740416,9.98321488 21.0279549,8.6937438 C21.3139601,7.87732231 22.0884125,7.32882645 22.9516153,7.32882645 C23.8165234,7.32882645 24.5896256,7.87732231 24.8757019,8.69332231 L25.4396118,8.5 L24.8761282,8.6937438 C25.3300416,9.98180992 26.5569861,10.8500041 27.927182,10.8500041 C29.300149,10.8500041 30.5257435,9.98321488 30.9782357,8.6937438 C31.2647383,7.87732231 32.0386932,7.32882645 32.9023224,7.32882645 C33.7673016,7.32882645 34.5404038,7.87732231 34.8273328,8.69332231 L35.3903189,8.5 L34.8278302,8.6937438 C35.2820988,9.98180992 36.5076932,10.8500041 37.8793102,10.8500041 C39.2495061,10.8500041 40.4751005,9.98180992 40.9289428,8.6937438 L39.8029705,8.3062562 Z M32.9027487,12.2783554 C31.5312028,12.2783554 30.3056083,13.1446529 29.851766,14.4336322 C29.5652634,15.2505455 28.7925875,15.7986198 27.9276083,15.7986198 C27.0640503,15.7986198 26.2895979,15.2505455 26.0035217,14.4336322 C25.5496794,13.1446529 24.325435,12.2783554 22.9524679,12.2783554 C21.5813484,12.2783554 20.3557539,13.1446529 19.9019116,14.4336322 C19.615409,15.2505455 18.8423068,15.7986198 17.977825,15.7986198 C17.1141958,15.7986198 16.3397435,15.2505455 16.0536672,14.4336322 C15.5993986,13.1446529 14.3738042,12.2783554 13.0026846,12.2783554 C11.6302149,12.2783554 10.4046205,13.1446529 9.95163085,14.4336322 C9.66420451,15.2505455 8.89110225,15.7986198 8.02754419,15.7986198 C7.16256499,15.7986198 6.38853899,15.2505455 6.1020364,14.4336322 C5.64911785,13.1446529 4.4235234,12.2783554 3.05190641,12.2783554 C1.68078683,12.2783554 0.454766031,13.1446529 0.000923743501,14.4336322 L1.12646967,14.8202769 C1.41389601,14.0051901 2.18699827,13.4566942 3.05190641,13.4566942 C3.91553553,13.4566942 4.68998787,14.0056116 4.97606412,14.8202769 C5.42898267,16.1115041 6.65457712,16.9769587 8.02704679,16.9769587 C9.39731369,16.9769587 10.6229081,16.1115041 11.0771768,14.8225248 L10.5151144,14.6265331 L11.0785269,14.8202769 C11.3636794,14.0051901 12.1377054,13.4566942 13.0026846,13.4566942 C13.8662426,13.4566942 14.640766,14.0056116 14.9281213,14.8202769 C15.3811109,16.1115041 16.6067054,16.9769587 17.9782513,16.9769587 C19.3498683,16.9769587 20.5754627,16.1115041 21.029305,14.8202769 C21.3153102,14.0051901 22.0884125,13.4566942 22.9529653,13.4566942 C23.8179445,13.4566942 24.5910468,14.0056116 24.877052,14.8202769 L25.4405355,14.6265331 L24.877052,14.8225248 C25.3308943,16.1115041 26.5579099,16.9769587 27.9281057,16.9769587 C29.3010017,16.9769587 30.5265962,16.1115041 30.9790884,14.8202769 C31.265591,14.0051901 32.0386932,13.4566942 32.9032461,13.4566942 C33.7682253,13.4566942 34.5413276,14.0056116 34.8282565,14.8202769 L35.9542288,14.4336322 C35.5008839,13.1446529 34.274792,12.2783554 32.9027487,12.2783554 Z" id="Fill-1" sketch:type="MSShapeGroup"></path>
            </g>
        </g>
    </g>
</svg>