<?xml version="1.0" encoding="UTF-8" standalone="no"?>
<svg width="27px" height="42px" viewBox="0 0 27 42" version="1.1" xmlns="http://www.w3.org/2000/svg" xmlns:xlink="http://www.w3.org/1999/xlink" xmlns:sketch="http://www.bohemiancoding.com/sketch/ns">
    <!-- Generator: Sketch 3.3.2 (12043) - http://www.bohemiancoding.com/sketch -->
    <title>Imported Layers</title>
    <desc>Created with Sketch.</desc>
    <defs></defs>
    <g id="Landing" stroke="none" stroke-width="1" fill="none" fill-rule="evenodd" sketch:type="MSPage">
        <g id="Implicaciones" sketch:type="MSArtboardGroup" transform="translate(-703.000000, -557.000000)" fill="#009966">
            <path d="M703,557.333496 L703,598.333496 L713.786652,598.333496 L713.786652,590.133496 L719.179775,590.133496 L719.179775,598.333496 L729.966022,598.333496 L729.966022,557.333496 L703,557.333496 L703,557.333496 Z M705.696764,575.100026 L711.089888,575.100026 L711.089888,583.300026 L705.696764,583.300026 L705.696764,575.100026 Z M705.696764,561.433496 L711.089888,561.433496 L711.089888,569.633496 L705.696764,569.633496 L705.696764,561.433496 Z M713.786652,575.100026 L719.179775,575.100026 L719.179775,583.300026 L713.786652,583.300026 L713.786652,575.100026 Z M713.786652,561.433496 L719.179775,561.433496 L719.179775,569.633496 L713.786652,569.633496 L713.786652,561.433496 Z M721.876539,575.100026 L727.269663,575.100026 L727.269663,583.300026 L721.876539,583.300026 L721.876539,575.100026 Z M721.876539,561.433496 L727.269663,561.433496 L727.269663,569.633496 L721.876539,569.633496 L721.876539,561.433496 Z" id="Imported-Layers" sketch:type="MSShapeGroup"></path>
        </g>
    </g>
</svg>