<?xml version="1.0" encoding="UTF-8" standalone="no"?>
<svg width="50px" height="43px" viewBox="0 0 50 43" version="1.1" xmlns="http://www.w3.org/2000/svg" xmlns:xlink="http://www.w3.org/1999/xlink" xmlns:sketch="http://www.bohemiancoding.com/sketch/ns">
    <!-- Generator: Sketch 3.3 (11970) - http://www.bohemiancoding.com/sketch -->
    <title>warningsign</title>
    <desc>Created with Sketch.</desc>
    <defs></defs>
    <g id="Page-1" stroke="none" stroke-width="1" fill="none" fill-rule="evenodd" sketch:type="MSPage">
        <g id="item4_on-copy" sketch:type="MSArtboardGroup" transform="translate(0.000000, -3.000000)" fill="#000000">
            <g id="warningsign" sketch:type="MSLayerGroup" transform="translate(0.000000, 3.000000)">
                <g id="Group" sketch:type="MSShapeGroup">
                    <path d="M48.8759288,34.9647059 L29.3012384,2.93908669 C26.924613,-0.951393189 23.0293344,-0.951393189 20.6535604,2.93908669 L1.08196594,34.9678019 C-1.29821981,38.8661765 0.382972136,42.0422601 4.80812693,42.0422601 L4.80812693,42.0396285 L45.1476006,42.0396285 C49.5770898,42.0391641 51.2561146,38.8595975 48.8759288,34.9647059 L48.8759288,34.9647059 Z M27.4650155,36.6247678 L22.5143963,36.6247678 L22.5143963,31.6679567 L27.4645511,31.6679567 L27.4650155,36.6247678 L27.4650155,36.6247678 Z M27.6557276,16.8752322 L26.3898607,29.9718266 L23.5855263,29.9718266 L22.294582,16.8822755 L22.294582,10.8239938 L27.6552632,10.8239938 L27.6557276,16.8752322 L27.6557276,16.8752322 Z" id="Shape"></path>
                </g>
            </g>
        </g>
    </g>
</svg>