<?xml version="1.0" encoding="UTF-8" standalone="no"?>
<svg width="50px" height="41px" viewBox="0 0 50 41" version="1.1" xmlns="http://www.w3.org/2000/svg" xmlns:xlink="http://www.w3.org/1999/xlink" xmlns:sketch="http://www.bohemiancoding.com/sketch/ns">
    <!-- Generator: Sketch 3.3 (11970) - http://www.bohemiancoding.com/sketch -->
    <title>pollution</title>
    <desc>Created with Sketch.</desc>
    <defs></defs>
    <g id="Page-1" stroke="none" stroke-width="1" fill="none" fill-rule="evenodd" sketch:type="MSPage">
        <g id="Artboard-1-Copy-5" sketch:type="MSArtboardGroup" transform="translate(0.000000, -4.000000)" fill="#000000">
            <g id="pollution" sketch:type="MSLayerGroup" transform="translate(0.000000, 4.000000)">
                <g id="Group" sketch:type="MSShapeGroup">
                    <path d="M43.7139773,14.1228409 C42.4492045,6.16397727 35.5561364,0.0802272727 27.2414773,0.0802272727 C19.7184091,0.0802272727 13.3595455,5.06056818 11.2796591,11.9038636 C4.82090909,13.3730682 0,19.1503409 0,26.0539773 C0,34.0685227 6.49715909,40.5656818 14.5118182,40.5656818 L35.4522727,40.5656818 C43.4668182,40.5656818 49.9640909,34.0685227 49.9640909,26.0539773 C49.9643182,21.1093182 47.4905682,16.7430682 43.7139773,14.1228409 L43.7139773,14.1228409 Z M20.0772727,19.1201136 L19.5985227,20.9886364 C19.5672727,21.1102273 19.4845455,21.2128409 19.3720455,21.2686364 C19.2593182,21.3246591 19.1280682,21.3288636 19.0121591,21.2804545 C18.4546591,21.0464773 17.8457955,20.9279545 17.2026136,20.9279545 C15.3944318,20.9279545 14.3148864,22.05375 14.3148864,23.9393182 C14.3148864,25.8235227 15.3730682,26.9043182 17.2181818,26.9043182 C17.9248864,26.9043182 18.6469318,26.7443182 19.01875,26.5954545 C19.1385227,26.5477273 19.2732955,26.5554545 19.3867045,26.6173864 C19.4998864,26.6790909 19.5796591,26.7882955 19.6042045,26.9147727 L19.9594318,28.7527273 C19.9961364,28.9434091 19.9015909,29.135 19.7280682,29.2219318 C19.2726136,29.4494318 18.2488636,29.7153409 16.8629545,29.7153409 C13.2884091,29.7153409 10.97875,27.5025 10.97875,24.0782955 C10.97875,20.5126136 13.4365909,18.1168182 17.0945455,18.1168182 C18.4032955,18.1168182 19.3797727,18.38125 19.8573864,18.6286364 C20.0361364,18.7213636 20.1271591,18.9251136 20.0772727,19.1201136 L20.0772727,19.1201136 Z M26.0706818,29.7306818 C22.9335227,29.7306818 20.7425,27.3747727 20.7425,24.0009091 C20.7425,20.5363636 23.0034091,18.1168182 26.2406818,18.1168182 C29.4553409,18.1168182 31.6152273,20.4070455 31.6152273,23.8157955 C31.6152273,27.4092045 29.4388636,29.7306818 26.0706818,29.7306818 L26.0706818,29.7306818 Z M38.9855682,32.0159091 C38.9855682,32.2547727 38.7919318,32.4484091 38.5528409,32.4484091 L33.2789773,32.4484091 C33.04,32.4484091 32.8463636,32.2547727 32.8463636,32.0159091 L32.8463636,30.9630682 C32.8463636,30.8409091 32.8980682,30.7242045 32.98875,30.6425 L33.9496591,29.7731818 C35.4903409,28.3951136 36.2259091,27.6181818 36.2442045,26.9252273 C36.2438636,26.4964773 35.9852273,26.2822727 35.4523864,26.2822727 C35.0304545,26.2822727 34.5838636,26.4601136 34.125,26.8111364 C34.0172727,26.8938636 33.8768182,26.9201136 33.74625,26.8845455 C33.6156818,26.8481818 33.5095455,26.7526136 33.4597727,26.62625 L32.9679545,25.3790909 C32.8965909,25.1982955 32.9547727,24.9923864 33.1096591,24.8751136 C33.8285227,24.3327273 34.8118182,24.02125 35.8069318,24.02125 C37.6543182,24.02125 38.8479545,25.1070455 38.8479545,26.7876136 C38.8479545,28.1414773 37.9343182,29.2075 36.9018182,30.1529545 L38.5526136,30.1529545 C38.7917045,30.1529545 38.9852273,30.3465909 38.9852273,30.5855682 L38.9852273,32.0160227 L38.9855682,32.0160227 L38.9855682,32.0159091 Z" id="Shape"></path>
                    <path d="M26.17875,20.8509091 C24.6401136,20.8509091 24.0940909,22.5228409 24.0940909,23.9546591 C24.0940909,25.8029545 24.9185227,26.9969318 26.1942045,26.9969318 C27.7214773,26.9969318 28.2635227,25.3247727 28.2635227,23.8930682 C28.2636364,22.37875 27.6189773,20.8509091 26.17875,20.8509091 L26.17875,20.8509091 Z" id="Shape"></path>
                </g>
            </g>
        </g>
    </g>
</svg>