<?xml version="1.0" encoding="UTF-8" standalone="no"?>
<svg width="27px" height="60px" viewBox="0 0 27 60" version="1.1" xmlns="http://www.w3.org/2000/svg" xmlns:xlink="http://www.w3.org/1999/xlink" xmlns:sketch="http://www.bohemiancoding.com/sketch/ns">
    <!-- Generator: Sketch 3.3 (11970) - http://www.bohemiancoding.com/sketch -->
    <title>thermometer73 copy</title>
    <desc>Created with Sketch.</desc>
    <defs></defs>
    <g id="Page-1" stroke="none" stroke-width="1" fill="none" fill-rule="evenodd" sketch:type="MSPage">
        <g id="Artboard-1-Copy" sketch:type="MSArtboardGroup" transform="translate(-11.000000, 0.000000)" fill="#3CAC90">
            <g id="thermometer73-copy" sketch:type="MSLayerGroup" transform="translate(11.500000, 0.000000)">
                <g id="Group" sketch:type="MSShapeGroup">
                    <path d="M20.8568026,5.13102773 C20.4334747,4.13011419 19.8279935,3.23177814 19.0571941,2.46107667 C18.2863948,1.6903752 17.3880587,1.08479608 16.3872431,0.661468189 C15.3495269,0.222577488 14.2488744,0 13.1157259,0 C11.9825775,0 10.881925,0.222577488 9.84430669,0.661468189 C8.84339315,1.08489396 7.94515498,1.69027732 7.17435563,2.46107667 C6.40365416,3.23177814 5.79807504,4.13021207 5.37474715,5.13102773 C4.93585644,6.16874388 4.71327896,7.26939641 4.71327896,8.40244698 L4.71327896,36.7727569 C3.47892333,37.8079282 2.43650897,39.0680261 1.6559217,40.4781729 C0.588548124,42.4062969 0.024274062,44.5960522 0.024274062,46.8106688 C0.024274062,48.5768026 0.370766721,50.2915498 1.05425775,51.9073409 C1.71376835,53.4665579 2.65732463,54.8663295 3.85869494,56.0677977 C5.06006525,57.269168 6.45993475,58.2128222 8.01915171,58.8722349 C9.63484502,59.5556281 11.34969,59.9022186 13.1158238,59.9022186 C14.8819576,59.9022186 16.5967047,59.5557259 18.2124959,58.8722349 C19.7717129,58.2127243 21.1714845,57.269168 22.3729527,56.0677977 C23.574323,54.8663295 24.5179772,53.4665579 25.1773899,51.9073409 C25.860783,50.2916476 26.2073736,48.5768026 26.2073736,46.8106688 C26.2073736,44.5959543 25.6431974,42.4062969 24.5757259,40.4781729 C23.7950408,39.068124 22.7526264,37.8079282 21.5183687,36.7727569 L21.5183687,8.40244698 C21.5181729,7.26939641 21.2956933,6.168646 20.8568026,5.13102773 L20.8568026,5.13102773 Z M23.4440457,46.810571 C23.4440457,52.5147798 18.8199347,57.1388907 13.1157259,57.1388907 C7.41151713,57.1388907 2.7874062,52.5147798 2.7874062,46.810571 C2.7874062,43.1873736 4.65347471,40.0006199 7.47641109,38.1570636 L7.47641109,8.40244698 C7.47641109,5.28792822 10.0012072,2.76323002 13.1156281,2.76323002 L13.1156281,2.76323002 C16.2301468,2.76323002 18.754845,5.2880261 18.754845,8.40244698 L18.754845,8.81823817 L13.7911909,8.81823817 C13.0282219,8.81823817 12.4096248,9.43683524 12.4096248,10.1998042 C12.4096248,10.9627732 13.0282219,11.5813703 13.7911909,11.5813703 L18.7550408,11.5813703 L18.7550408,14.3446003 L13.7911909,14.3446003 C13.0282219,14.3446003 12.4096248,14.9631974 12.4096248,15.7261664 C12.4096248,16.4891354 13.0282219,17.1077325 13.7911909,17.1077325 L18.7550408,17.1077325 L18.7550408,19.8709625 L13.7911909,19.8709625 C13.0282219,19.8709625 12.4096248,20.4895595 12.4096248,21.2525285 C12.4096248,22.0154976 13.0282219,22.6340946 13.7911909,22.6340946 L18.7550408,22.6340946 L18.7550408,38.1569657 C21.578075,40.0006199 23.4440457,43.1874715 23.4440457,46.810571 L23.4440457,46.810571 Z" id="Shape"></path>
                    <path d="M17.5799021,39.9565742 L16.6058075,39.3204568 L16.6058075,38.1570636 L16.6058075,28.1851223 C16.6058075,26.2607178 15.0401305,24.6950408 13.1157259,24.6950408 C11.1913214,24.6950408 9.62564437,26.2607178 9.62564437,28.1851223 L9.62564437,38.1570636 L9.62564437,39.3204568 L8.65154976,39.9565742 C6.32535073,41.4755628 4.93663948,44.0378467 4.93663948,46.810571 C4.93663948,48.9952365 5.7874062,51.0492333 7.33223491,52.594062 C8.87706362,54.1388907 10.9310604,54.9896574 13.1157259,54.9896574 C15.3003915,54.9896574 17.3543883,54.1387928 18.899217,52.594062 C20.4440457,51.0492333 21.2948124,48.9952365 21.2948124,46.810571 C21.2949103,44.0378467 19.9061011,41.4756607 17.5799021,39.9565742 L17.5799021,39.9565742 Z" id="Shape"></path>
                </g>
            </g>
        </g>
    </g>
</svg>